HIERARCHY
ROOT Hips
{
	OFFSET 0.000000 100.481300 0.000000
	CHANNELS 6 Xposition Yposition Zposition Xrotation Yrotation Zrotation
	JOINT Spine
	{
		OFFSET -0.279200 12.230698 -2.892100
		CHANNELS 3 Xrotation Yrotation Zrotation
		JOINT Spine1
		{
			OFFSET -0.325700 14.269203 -3.374200
			CHANNELS 3 Xrotation Yrotation Zrotation
			JOINT Spine2
			{
				OFFSET -0.372300 16.307602 -0.352600
				CHANNELS 3 Xrotation Yrotation Zrotation
				JOINT Neck
				{
					OFFSET -0.418800 17.814194 8.416900
					CHANNELS 3 Xrotation Yrotation Zrotation
					JOINT Head
					{
						OFFSET 0.000000 7.031097 3.806800
						CHANNELS 3 Xrotation Yrotation Zrotation
						JOINT HeadTop_End
						{
							OFFSET 0.000000 24.646606 12.978600
							CHANNELS 3 Xrotation Yrotation Zrotation
							End Site
							{
								OFFSET 0.000000 27.854965 0.000000
							}
						}
					}
				}
				JOINT LeftShoulder
				{
					OFFSET 16.952999 14.495407 -7.737500
					CHANNELS 3 Xrotation Yrotation Zrotation
					JOINT LeftArm
					{
						OFFSET 9.308998 -2.777710 0.208600
						CHANNELS 3 Xrotation Yrotation Zrotation
						JOINT LeftForeArm
						{
							OFFSET 29.972298 0.000000 0.000000
							CHANNELS 3 Xrotation Yrotation Zrotation
							JOINT LeftHand
							{
								OFFSET 26.026505 0.000000 0.000000
								CHANNELS 3 Xrotation Yrotation Zrotation
								JOINT LeftHandThumb1
								{
									OFFSET 12.240501 -7.147949 9.207150
									CHANNELS 3 Xrotation Yrotation Zrotation
									JOINT LeftHandThumb2
									{
										OFFSET 4.138618 -2.389435 2.389433
										CHANNELS 3 Xrotation Yrotation Zrotation
										JOINT LeftHandThumb3
										{
											OFFSET 2.726913 -1.574387 1.574386
											CHANNELS 3 Xrotation Yrotation Zrotation
											JOINT LeftHandThumb4
											{
												OFFSET 3.941010 -2.275345 2.275342
												CHANNELS 3 Xrotation Yrotation Zrotation
												End Site
												{
													OFFSET -0.005798 5.087799 0.009903
												}
											}
										}
									}
								}
								JOINT LeftHandIndex1
								{
									OFFSET 24.424698 -1.985611 5.953459
									CHANNELS 3 Xrotation Yrotation Zrotation
									JOINT LeftHandIndex2
									{
										OFFSET 6.426697 0.000000 0.000000
										CHANNELS 3 Xrotation Yrotation Zrotation
										JOINT LeftHandIndex3
										{
											OFFSET 5.337898 0.000000 0.000000
											CHANNELS 3 Xrotation Yrotation Zrotation
											JOINT LeftHandIndex4
											{
												OFFSET 4.409401 0.000000 0.000000
												CHANNELS 3 Xrotation Yrotation Zrotation
												End Site
												{
													OFFSET 0.000000 4.409363 0.014373
												}
											}
										}
									}
								}
								JOINT LeftHandMiddle1
								{
									OFFSET 23.810104 0.000000 0.000000
									CHANNELS 3 Xrotation Yrotation Zrotation
									JOINT LeftHandMiddle2
									{
										OFFSET 7.176498 0.000000 0.000000
										CHANNELS 3 Xrotation Yrotation Zrotation
										JOINT LeftHandMiddle3
										{
											OFFSET 6.774902 0.000000 0.000000
											CHANNELS 3 Xrotation Yrotation Zrotation
											JOINT LeftHandMiddle4
											{
												OFFSET 5.403328 0.000000 0.000000
												CHANNELS 3 Xrotation Yrotation Zrotation
												End Site
												{
													OFFSET -0.027702 5.403244 0.017414
												}
											}
										}
									}
								}
								JOINT LeftHandRing1
								{
									OFFSET 22.908401 -0.839279 -6.020567
									CHANNELS 3 Xrotation Yrotation Zrotation
									JOINT LeftHandRing2
									{
										OFFSET 6.337502 0.000000 0.000000
										CHANNELS 3 Xrotation Yrotation Zrotation
										JOINT LeftHandRing3
										{
											OFFSET 5.779297 0.000000 0.000000
											CHANNELS 3 Xrotation Yrotation Zrotation
											JOINT LeftHandRing4
											{
												OFFSET 4.965698 0.000000 0.000000
												CHANNELS 3 Xrotation Yrotation Zrotation
												End Site
												{
													OFFSET 0.000000 4.965668 0.016186
												}
											}
										}
									}
								}
								JOINT LeftHandPinky1
								{
									OFFSET 20.037003 -1.530319 -10.950146
									CHANNELS 3 Xrotation Yrotation Zrotation
									JOINT LeftHandPinky2
									{
										OFFSET 5.254700 0.000000 0.000000
										CHANNELS 3 Xrotation Yrotation Zrotation
										JOINT LeftHandPinky3
										{
											OFFSET 4.810204 0.000000 0.000000
											CHANNELS 3 Xrotation Yrotation Zrotation
											JOINT LeftHandPinky4
											{
												OFFSET 3.647202 0.000000 0.000000
												CHANNELS 3 Xrotation Yrotation Zrotation
												End Site
												{
													OFFSET 0.000000 3.647186 0.011889
												}
											}
										}
									}
								}
							}
						}
					}
				}
				JOINT RightShoulder
				{
					OFFSET -15.141001 14.495407 -7.737500
					CHANNELS 3 Xrotation Yrotation Zrotation
					JOINT RightArm
					{
						OFFSET -9.308998 -2.777710 0.208500
						CHANNELS 3 Xrotation Yrotation Zrotation
						JOINT RightForeArm
						{
							OFFSET -29.972300 0.000000 0.000000
							CHANNELS 3 Xrotation Yrotation Zrotation
							JOINT RightHand
							{
								OFFSET -26.026505 0.000000 0.000000
								CHANNELS 3 Xrotation Yrotation Zrotation
								JOINT RightHandThumb1
								{
									OFFSET -12.240601 -7.148026 9.207092
									CHANNELS 3 Xrotation Yrotation Zrotation
									JOINT RightHandThumb2
									{
										OFFSET -4.138618 -2.389435 2.389433
										CHANNELS 3 Xrotation Yrotation Zrotation
										JOINT RightHandThumb3
										{
											OFFSET -2.726974 -1.574417 1.574421
											CHANNELS 3 Xrotation Yrotation Zrotation
											JOINT RightHandThumb4
											{
												OFFSET -3.941010 -2.275345 2.275343
												CHANNELS 3 Xrotation Yrotation Zrotation
												End Site
												{
													OFFSET 0.005814 5.087799 0.009927
												}
											}
										}
									}
								}
								JOINT RightHandIndex1
								{
									OFFSET -24.424698 -1.985657 5.953444
									CHANNELS 3 Xrotation Yrotation Zrotation
									JOINT RightHandIndex2
									{
										OFFSET -6.426697 0.000000 0.000000
										CHANNELS 3 Xrotation Yrotation Zrotation
										JOINT RightHandIndex3
										{
											OFFSET -5.337898 0.000000 0.000000
											CHANNELS 3 Xrotation Yrotation Zrotation
											JOINT RightHandIndex4
											{
												OFFSET -4.409401 0.000000 0.000000
												CHANNELS 3 Xrotation Yrotation Zrotation
												End Site
												{
													OFFSET 0.000000 4.409363 0.014408
												}
											}
										}
									}
								}
								JOINT RightHandMiddle1
								{
									OFFSET -23.810097 0.000000 0.000000
									CHANNELS 3 Xrotation Yrotation Zrotation
									JOINT RightHandMiddle2
									{
										OFFSET -7.176498 0.000000 0.000000
										CHANNELS 3 Xrotation Yrotation Zrotation
										JOINT RightHandMiddle3
										{
											OFFSET -6.774902 0.000000 0.000000
											CHANNELS 3 Xrotation Yrotation Zrotation
											JOINT RightHandMiddle4
											{
												OFFSET -5.403328 0.000000 0.000000
												CHANNELS 3 Xrotation Yrotation Zrotation
												End Site
												{
													OFFSET 0.027702 5.403244 0.017457
												}
											}
										}
									}
								}
								JOINT RightHandRing1
								{
									OFFSET -22.908302 -0.839325 -6.020576
									CHANNELS 3 Xrotation Yrotation Zrotation
									JOINT RightHandRing2
									{
										OFFSET -6.337502 0.000000 0.000000
										CHANNELS 3 Xrotation Yrotation Zrotation
										JOINT RightHandRing3
										{
											OFFSET -5.779297 0.000000 0.000000
											CHANNELS 3 Xrotation Yrotation Zrotation
											JOINT RightHandRing4
											{
												OFFSET -4.965698 0.000000 0.000000
												CHANNELS 3 Xrotation Yrotation Zrotation
												End Site
												{
													OFFSET 0.000000 4.965668 0.016226
												}
											}
										}
									}
								}
								JOINT RightHandPinky1
								{
									OFFSET -20.037003 -1.530334 -10.950259
									CHANNELS 3 Xrotation Yrotation Zrotation
									JOINT RightHandPinky2
									{
										OFFSET -5.254700 0.000000 0.000000
										CHANNELS 3 Xrotation Yrotation Zrotation
										JOINT RightHandPinky3
										{
											OFFSET -4.810204 0.000000 0.000000
											CHANNELS 3 Xrotation Yrotation Zrotation
											JOINT RightHandPinky4
											{
												OFFSET -3.647202 0.000000 0.000000
												CHANNELS 3 Xrotation Yrotation Zrotation
												End Site
												{
													OFFSET 0.000000 3.647186 0.011917
												}
											}
										}
									}
								}
							}
						}
					}
				}
			}
		}
	}
	JOINT LeftUpLeg
	{
		OFFSET 15.427100 -6.655098 0.678600
		CHANNELS 3 Xrotation Yrotation Zrotation
		JOINT LeftLeg
		{
			OFFSET 4.081073 -39.591068 13.024000
			CHANNELS 3 Xrotation Yrotation Zrotation
			JOINT LeftFoot
			{
				OFFSET -4.081074 -37.707932 -15.979700
				CHANNELS 3 Xrotation Yrotation Zrotation
				JOINT LeftToeBase
				{
					OFFSET 5.346399 -15.068900 20.645000
					CHANNELS 3 Xrotation Yrotation Zrotation
					JOINT LeftToe_End
					{
						OFFSET 2.754700 0.931300 11.300900
						CHANNELS 3 Xrotation Yrotation Zrotation
						End Site
						{
							OFFSET 0.000000 11.669021 0.000000
						}
					}
				}
			}
		}
	}
	JOINT RightUpLeg
	{
		OFFSET -15.569500 -6.655098 0.678600
		CHANNELS 3 Xrotation Yrotation Zrotation
		JOINT RightLeg
		{
			OFFSET -4.081825 -39.591045 13.023800
			CHANNELS 3 Xrotation Yrotation Zrotation
			JOINT RightFoot
			{
				OFFSET 4.081824 -37.707954 -15.979600
				CHANNELS 3 Xrotation Yrotation Zrotation
				JOINT RightToeBase
				{
					OFFSET -5.346400 -15.068900 20.645000
					CHANNELS 3 Xrotation Yrotation Zrotation
					JOINT RightToe_End
					{
						OFFSET -2.754700 0.931300 11.300900
						CHANNELS 3 Xrotation Yrotation Zrotation
						End Site
						{
							OFFSET 0.000000 11.669021 0.000000
						}
					}
				}
			}
		}
	}
}
MOTION
Frames: 4
Frame Time: 0.033333
-42.141975 72.191277 5.140137 39.252329 40.117697 -22.388361 76.223279 4.051921 1.749907 6.283606 1.856826 -2.194279 6.376858 1.342280 -2.463133 7.863382 0.373655 -5.741322 -9.504413 -2.932929 1.630935 -0.000003 -0.000002 -0.000001 0.985917 -12.927721 -7.344574 -53.730274 -22.880690 -18.783551 -0.000004 -6.327979 -0.000003 -34.675767 -25.465536 1.090565 -15.145521 -14.455301 -2.970387 14.478323 36.416892 -4.859689 -5.840692 4.153102 12.871251 -0.000003 0.000001 -0.000001 -2.091431 -4.300735 -16.519507 0.813252 2.979641 -30.526322 0.813243 2.979631 -30.526304 0.000000 0.000000 0.000000 -0.581719 1.171306 -17.381759 1.875851 4.296775 -47.153556 1.875850 4.296780 -47.153546 -0.000000 0.000001 0.000001 2.080599 8.228654 -23.188738 2.828658 5.012333 -58.854299 2.829072 5.012555 -58.859087 0.000003 0.000000 -0.000000 3.489861 12.807315 -19.577607 0.509245 2.390921 -24.044405 0.509236 2.390910 -24.044392 -0.000002 0.000002 0.000001 4.556128 7.850739 -22.116477 -75.922798 41.207505 15.207763 0.000002 13.712666 -0.000002 20.836843 25.692352 -31.447639 -18.539080 11.961501 -3.956551 16.990449 -36.657639 1.778372 -3.924581 -9.380376 -15.001826 0.000000 0.000000 -0.000002 0.288806 6.465734 -1.242045 0.437885 -1.973282 25.020402 0.437426 -1.972299 25.007221 0.000004 -0.000001 -0.000000 0.006359 0.143070 1.062990 1.082871 -2.987489 39.840254 1.082809 -2.987433 39.839373 0.000000 0.000001 -0.000001 0.260637 -4.799602 5.157142 1.294831 -3.224253 43.750900 1.290620 -3.219849 43.676000 0.000001 0.000000 -0.000001 2.131459 -11.923953 12.547031 0.469508 -2.039649 25.924026 0.448884 -1.996695 25.338497 -0.000000 0.000001 0.000001 -47.414210 -3.001081 42.357483 10.775128 -7.065634 6.108280 -8.797613 -6.599428 -18.965941 -1.737950 0.000005 0.000012 -0.000001 -0.000000 -0.000002 -61.950745 2.328605 -41.216865 59.252274 -1.388417 7.967408 -13.719013 -9.880531 18.082345 -1.053042 0.000005 -0.000006 -0.000000 0.000000 -0.000001 
-45.584877 72.204453 9.002674 51.171651 45.503212 -35.334665 77.315563 5.209785 -0.420196 5.961002 2.410610 -1.771246 6.070217 1.964269 -2.150592 7.452758 -0.057596 -4.129117 -9.926445 -4.430093 3.434497 0.000001 -0.000001 0.000000 1.135291 -12.748492 -6.226850 -49.688369 -16.779050 -13.560688 0.000007 -8.465743 0.000010 -39.607447 -22.537901 4.613745 -15.333187 -14.669885 -2.998311 14.412423 36.296411 -4.811460 -5.863642 4.084070 12.876134 0.000002 -0.000002 0.000001 -1.950178 -4.150189 -15.861934 0.640814 2.666061 -27.026138 0.640819 2.666057 -27.026142 -0.000003 0.000001 0.000000 -0.532847 1.036333 -15.782745 1.437244 3.844774 -40.980988 1.437241 3.844804 -40.981022 0.000002 -0.000001 0.000001 2.011015 8.357582 -21.547394 2.583444 4.856265 -56.004044 2.583871 4.856553 -56.009276 -0.000002 0.000000 -0.000000 3.206300 12.479127 -18.563421 0.445750 2.243318 -22.474008 0.445732 2.243305 -22.473984 -0.000001 0.000003 -0.000001 4.714022 7.123746 -24.356345 -82.157675 43.198221 19.836114 0.000008 12.232122 -0.000006 29.244831 27.501029 -35.561909 -19.073378 13.840891 -5.050539 14.821236 -32.936904 0.851249 -4.263343 -8.552628 -14.943843 -0.000001 0.000002 -0.000000 0.886208 5.838206 -5.834594 0.341686 -1.752607 22.062197 0.337793 -1.742975 21.934541 -0.000001 -0.000002 0.000003 0.148887 0.796633 -1.789903 0.569342 -2.233236 28.601337 0.568876 -2.232387 28.589485 0.000000 -0.000000 0.000001 0.078852 -3.074383 1.962828 0.779959 -2.581985 33.611860 0.743314 -2.526036 32.789430 0.000001 -0.000000 0.000000 1.170793 -13.611414 5.522462 0.187213 -1.308506 16.283794 0.134502 -1.112329 13.788869 -0.000000 0.000000 -0.000001 -45.554329 -7.966071 39.854307 19.688751 -7.999570 9.265426 -8.121442 -0.423668 -18.796151 -1.533098 0.000008 -0.000019 -0.000002 -0.000003 -0.000003 -62.043253 -2.851010 -39.913529 63.610897 -2.021868 10.282075 -21.475703 -16.603838 12.792371 -1.986392 0.000002 0.000005 -0.000000 0.000000 -0.000001 
-47.857059 71.642487 12.520508 65.249023 48.634782 -51.060998 77.337023 6.095055 -1.458032 5.807603 2.623301 -1.467302 5.918441 2.227808 -1.878674 7.811587 -0.337269 -2.567432 -10.840195 -5.536803 5.617936 -0.000002 0.000001 0.000002 1.138588 -12.240241 -5.107895 -46.094717 -8.341534 -9.043959 -0.000009 -13.841925 -0.000009 -38.416693 -19.360405 7.753044 -15.376632 -14.716032 -2.995116 14.404977 36.282757 -4.806032 -5.886386 4.019747 12.880619 -0.000000 0.000000 -0.000000 -1.913861 -4.047825 -15.801153 0.586169 2.556238 -25.826846 0.586187 2.556243 -25.826887 0.000005 -0.000001 0.000000 -0.526984 0.937945 -15.186140 1.299154 3.680158 -38.876822 1.299149 3.680170 -38.876836 -0.000002 -0.000000 0.000000 1.967505 8.366614 -20.939238 2.489922 4.792080 -54.891942 2.490376 4.792395 -54.897509 -0.000000 0.000000 0.000002 3.111457 12.398258 -18.143078 0.423771 2.189466 -21.905646 0.423768 2.189450 -21.905632 -0.000003 -0.000001 -0.000000 4.669230 5.897418 -25.288917 -90.651193 44.184299 26.854598 0.000011 11.626110 -0.000007 37.826165 27.511136 -39.673410 -19.615723 15.219302 -5.485544 13.282541 -30.079470 0.243578 -4.627267 -7.660727 -14.878580 -0.000001 -0.000003 -0.000001 0.507805 4.930763 -3.438248 0.267225 -1.556388 19.483676 0.259017 -1.532985 19.179038 -0.000001 0.000000 0.000003 0.036434 0.878194 0.334993 0.278684 -1.588420 19.901518 0.277768 -1.585876 19.868327 0.000000 0.000001 0.000000 0.052277 -2.510298 1.659050 0.396192 -1.881451 23.781134 0.331204 -1.726547 21.717100 0.000000 -0.000001 -0.000001 1.067630 -14.753600 4.280091 0.068995 -0.799571 9.864509 0.013233 -0.351229 4.315710 0.000000 -0.000001 0.000003 -43.715526 -10.640023 37.840375 32.182581 -3.519125 8.714741 -10.465986 4.731091 -18.358734 -0.772890 -0.000025 -0.000002 0.000000 -0.000001 -0.000003 -61.990121 -6.506939 -37.898551 67.539199 -1.926345 11.259087 -27.252883 -21.883571 9.371532 -4.799209 -0.000009 -0.000004 0.000000 0.000001 -0.000001 
-50.002384 71.167358 17.368254 81.067638 48.023043 -68.739454 75.285337 6.299760 -1.252004 5.764812 2.532658 -1.227850 5.863120 2.192098 -1.601598 8.509786 -0.265518 -1.534079 -10.146719 -5.382014 7.806360 0.000000 0.000001 -0.000000 0.943993 -10.341986 -4.287656 -44.598137 1.070514 -6.157407 -0.000016 -20.780808 -0.000009 -33.635396 -15.364326 10.608227 -15.570576 -14.950866 -3.008797 14.239474 35.977407 -4.685021 -5.910432 3.951068 12.885406 0.000000 -0.000001 0.000001 -1.882579 -3.994984 -15.683887 0.533244 2.443940 -24.613369 0.533232 2.443933 -24.613335 -0.000002 0.000001 0.000000 -0.535356 0.843862 -14.891382 1.224456 3.585743 -37.698048 1.224475 3.585734 -37.698061 0.000001 0.000002 0.000001 1.917053 8.313949 -20.552582 2.445881 4.760942 -54.363214 2.446364 4.761288 -54.369064 0.000001 0.000001 0.000002 3.112865 12.495938 -17.943718 0.409061 2.152562 -21.517486 0.409067 2.152563 -21.517485 -0.000003 0.000001 0.000001 4.623105 5.023208 -24.609921 -96.293195 43.773610 31.949279 -0.000008 14.969345 0.000021 41.599172 24.708307 -38.557364 -20.529189 17.357187 -5.920707 10.739042 -24.895353 -0.702645 -5.319967 -5.950765 -14.749083 0.000003 0.000000 -0.000002 0.413809 3.916833 -3.220966 0.148066 -1.166218 14.471347 0.139453 -1.132326 14.041906 -0.000000 -0.000002 -0.000003 0.022438 0.777591 0.594528 0.087230 -0.898086 11.094689 0.086451 -0.894130 11.045193 0.000001 0.000003 0.000000 0.045807 -2.353508 -0.343200 0.078153 -0.850536 10.500256 0.038353 -0.597092 7.350109 -0.000000 -0.000001 -0.000004 -0.276821 -16.752016 -1.822208 0.007380 -0.262331 3.221974 0.018542 0.415628 -5.108963 0.000001 -0.000002 -0.000001 -41.223122 -8.194259 34.772155 39.223218 3.038164 8.286817 -12.521582 5.544731 -19.620623 -2.399860 -0.000004 -0.000002 -0.000000 -0.000001 -0.000002 -62.395226 -7.852009 -34.528000 71.977818 -2.581706 10.438810 -30.039496 -22.195022 10.036857 -13.995134 0.000001 -0.000001 0.000001 0.000001 -0.000000 
